<svg class="nc-icon glyph" xmlns="http://www.w3.org/2000/svg" xmlns:xlink="http://www.w3.org/1999/xlink" x="0px" y="0px" width="32px" height="32px" viewBox="0 0 32 32"><g>
<path data-color="color-2" fill="#ffffff" d="M15,32H1c-0.553,0-1-0.448-1-1V1c0-0.552,0.447-1,1-1h30c0.553,0,1,0.448,1,1v14h-2V2H2v28h13V32
	z"></path>
<path fill="#ffffff" d="M30.561,28.439l-6.211-6.211L30,19l-15-4l4,15l3.229-5.65l6.211,6.211c0.586,0.586,1.535,0.586,2.121,0
	C31.146,29.975,31.146,29.025,30.561,28.439z"></path>
</g></svg>