<svg class="nc-icon glyph" xmlns="http://www.w3.org/2000/svg" xmlns:xlink="http://www.w3.org/1999/xlink" x="0px" y="0px" width="32px" height="32px" viewBox="0 0 32 32"><g>
<path fill="#ffffff" d="M31.4,27.2l-2.5-5.6C28.8,21.2,28.4,21,28,21H4c-0.4,0-0.8,0.2-0.9,0.6l-2.5,5.7c-0.2,0.6-0.1,1.3,0.2,1.8
	c0.4,0.5,1,0.9,1.6,0.9h27.1c0.7,0,1.3-0.3,1.6-0.9C31.6,28.6,31.7,27.9,31.4,27.2z"></path>
<path data-color="color-2" fill="#ffffff" d="M4,19h24c0.6,0,1-0.4,1-1V5c0-1.7-1.3-3-3-3H6C4.3,2,3,3.3,3,5v13C3,18.6,3.4,19,4,19z M7,7
	c0-0.6,0.4-1,1-1h16c0.6,0,1,0.4,1,1v7c0,0.6-0.4,1-1,1H8c-0.6,0-1-0.4-1-1V7z"></path>
</g></svg>